<?xml version="1.0" encoding="utf-8"?>
<!-- Generator: Adobe Illustrator 25.2.1, SVG Export Plug-In . SVG Version: 6.00 Build 0)  -->
<svg version="1.1" id="Layer_1" xmlns="http://www.w3.org/2000/svg" xmlns:xlink="http://www.w3.org/1999/xlink" x="0px" y="0px"
	 viewBox="0 0 360 360" style="enable-background:new 0 0 360 360;" xml:space="preserve">
<style type="text/css">
	.st0{fill:#FFFFFF;}
</style>
<g>
	<path class="st0" d="M50.2,162.3l-11.5,7.6l-3.8-2.5l-23.2,15.5v14.9h15.4v-20.3l11.5,7.6l11.5-7.6v20.3h15.4v-35.5H50.2
		L50.2,162.3z"/>
	<path class="st0" d="M119.6,162.3H88.8l-11.5,7.6v27.9h15.4v-7.6h23.1v7.6h15.4v-27.9L119.6,162.3z M115.8,180H92.7v-5l3.8-2.5
		h15.4l3.8,2.5L115.8,180L115.8,180z"/>
	<path class="st0" d="M140.9,162.3v10.1h19.2v25.4h15.4v-25.4h19.2v-10.1H140.9z"/>
	<path class="st0" d="M258.1,193.8l-3.7-2.4l-5.6-3.7l11.5-7.6V170l-11.5-7.6h-42.3v35.5h15.4v-10.1h3.9l15.4,10.1h23.1L258.1,193.8
		z M241.1,177.5h-19.2v-5.1h19.2l3.9,2.5L241.1,177.5z"/>
	<path class="st0" d="M272,162.3v35.5h15.4v-35.5H272z"/>
	<path class="st0" d="M352.9,162.3h-11.5L326,172.4l-15.4-10.1H299v7.6l15.4,10.1l-5.6,3.7l-3.7,2.4l-6.1,4v7.6h11.5l15.4-10.1
		l4.6,3L342,183l-4.5-3l15.4-10.1V162.3L352.9,162.3z"/>
</g>
</svg>
