<?xml version="1.0" encoding="utf-8"?>
<!-- Generator: Adobe Illustrator 25.0.1, SVG Export Plug-In . SVG Version: 6.00 Build 0)  -->
<svg version="1.1" id="Layer_1" xmlns="http://www.w3.org/2000/svg" xmlns:xlink="http://www.w3.org/1999/xlink" x="0px" y="0px"
	 viewBox="0 0 360 360" style="enable-background:new 0 0 360 360;" xml:space="preserve">
<style type="text/css">
	.st0{fill:#F32735;}
	.st1{fill:#FFFFFF;}
</style>
<g>
	<path class="st0" d="M50.2,162.3l-11.5,7.6l-3.8-2.5l-23.2,15.5v14.9h15.4v-20.3l11.5,7.6l11.5-7.6v20.3h15.4v-35.5L50.2,162.3
		L50.2,162.3z"/>
	<path class="st0" d="M119.6,162.3H88.8l-11.5,7.6v27.9h15.4v-7.6h23.1v7.6h15.4v-27.9L119.6,162.3z M115.8,180H92.7V175l3.8-2.5
		h15.4l3.8,2.5V180z"/>
	<path class="st0" d="M140.9,162.3v10.1h19.2v25.4h15.4v-25.4h19.2v-10.1H140.9z"/>
	<path class="st0" d="M258.1,193.8l-3.7-2.4l-5.6-3.7l11.5-7.6v-10.1l-11.5-7.6h-42.3v35.5h15.4v-10.1h3.9l15.4,10.1h23.1
		L258.1,193.8z M241.1,177.5h-19.2v-5.1h19.2l3.9,2.5L241.1,177.5z"/>
	<path class="st0" d="M272,162.3v35.5h15.4v-35.5H272z"/>
	<path class="st0" d="M352.9,162.3h-11.5l-15.4,10.1l-15.4-10.1H299v7.6l15.4,10.1l-5.6,3.7l-3.7,2.4l-6.1,4v7.6h11.5l15.4-10.1
		l4.6,3L342,183l-4.5-3l15.4-10.1L352.9,162.3L352.9,162.3z"/>
</g>
<polygon class="st0" points="146.7,142.5 143.7,142.5 51.6,50.4 53.1,48.9 "/>
<polygon class="st1" points="109.5,142.5 106.5,142.5 14.4,50.4 15.9,48.9 "/>
<polygon class="st1" points="183.3,142.5 180.3,142.5 88.2,50.4 89.7,48.9 "/>
<polygon class="st0" points="218.4,217.8 221.4,217.7 313.5,309.8 312,311.3 "/>
<polygon class="st1" points="255.6,217.8 258.5,217.7 350.6,309.8 349.1,311.3 "/>
<polygon class="st1" points="181.8,217.8 184.7,217.7 276.8,309.8 275.3,311.3 "/>
</svg>
