<?xml version="1.0" encoding="utf-8"?>
<!-- Generator: Adobe Illustrator 25.0.1, SVG Export Plug-In . SVG Version: 6.00 Build 0)  -->
<svg version="1.1" id="Layer_1" xmlns="http://www.w3.org/2000/svg" xmlns:xlink="http://www.w3.org/1999/xlink" x="0px" y="0px"
	 viewBox="0 0 360 360" style="enable-background:new 0 0 360 360;" xml:space="preserve">
<style type="text/css">
	.st0{fill:#F32735;}
</style>
<g>
	<path class="st0" d="M50.24,162.28l-11.54,7.61l-3.76-2.48L11.76,182.9v14.89h15.4v-20.29l11.55,7.61l11.54-7.61v20.29h15.4v-35.51
		H50.24z"/>
	<path class="st0" d="M119.62,162.28h-30.8l-11.54,7.61v27.9h15.39v-7.61h23.1v7.61h15.4v-27.9L119.62,162.28z M115.78,180.04h-23.1
		v-5.08l3.85-2.54h15.4l3.85,2.54V180.04z"/>
	<path class="st0" d="M140.89,162.28v10.14h19.24v25.36h15.4v-25.36h19.25v-10.14H140.89z"/>
	<path class="st0" d="M258.06,193.77l-3.72-2.45l-5.58-3.68l11.54-7.61v-10.15l-11.54-7.61h-42.35v35.51h15.4v-10.14h3.85
		l15.4,10.14h23.09L258.06,193.77z M241.06,177.49h-19.24v-5.07h19.24l3.85,2.54L241.06,177.49z"/>
	<path class="st0" d="M271.95,162.28v35.51h15.39v-35.51H271.95z"/>
	<path class="st0" d="M352.87,162.28h-11.55l-15.4,10.14l-15.39-10.14h-11.55v7.61l15.4,10.15l-5.58,3.68l-3.72,2.45l-6.09,4.01
		v7.61h11.55l15.39-10.14l4.62,3.04l11.47-7.66l-4.55-2.99l15.4-10.15V162.28z"/>
</g>
<polygon class="st0" points="146.66,142.5 143.7,142.51 51.61,50.42 53.09,48.94 "/>
<polygon points="109.48,142.5 106.52,142.51 14.43,50.42 15.92,48.94 "/>
<polygon points="183.29,142.5 180.33,142.51 88.24,50.42 89.73,48.94 "/>
<polygon class="st0" points="218.4,217.75 221.35,217.74 313.45,309.84 311.96,311.32 "/>
<polygon points="255.57,217.75 258.53,217.74 350.62,309.84 349.14,311.32 "/>
<polygon points="181.76,217.75 184.72,217.74 276.81,309.84 275.33,311.32 "/>
</svg>
